<svg width="1280" height="640" viewBox="0 0 1280 640" xmlns="http://www.w3.org/2000/svg">
<rect x="0" y="0" width="1280" height="640" fill="#0f1b2d"/>
<rect x="0" y="0" width="12" height="640" fill="#1d9e75"/>
<g stroke="#1b2c44" stroke-width="1">
<line x1="75" y1="470" x2="1205" y2="470"/>
<line x1="75" y1="405" x2="1205" y2="405"/>
<line x1="75" y1="339" x2="1205" y2="339"/>
</g>
<g>
<rect x="282" y="282" width="132" height="198" fill="#12352e"/>
<rect x="772" y="282" width="104" height="198" fill="#12352e"/>
</g>
<polyline points="85,329 160,316 226,376 292,442 358,452 414,437 480,386 546,335 612,316 678,358 743,405 809,448 866,444 932,395 998,348 1064,324 1139,335 1205,358" fill="none" stroke="#4fd1a5" stroke-width="4.5" stroke-linecap="round" stroke-linejoin="round"/>
<circle cx="324" cy="446" r="7.5" fill="#4fd1a5"/>
<circle cx="838" cy="446" r="7.5" fill="#4fd1a5"/>
<text x="348" y="264" text-anchor="middle" font-family="Arial, Helvetica, sans-serif" font-size="19" fill="#5dcaa5">cheapest hours</text>
<text x="75" y="548" font-family="Arial, Helvetica, sans-serif" font-size="19" fill="#5b6c82">German day-ahead price, ct/kWh over 24 h</text>
<text x="75" y="150" font-family="Georgia, 'Times New Roman', serif" font-size="62" font-weight="bold" fill="#ffffff">Energy Market Predictability</text>
<text x="75" y="205" font-family="Arial, Helvetica, sans-serif" font-size="27" fill="#aeb9c7">Forecasting the German power market, and measuring where forecasts fail.</text>
<line x1="75" y1="580" x2="1205" y2="580" stroke="#1b2c44" stroke-width="1"/>
<text x="75" y="614" font-family="Arial, Helvetica, sans-serif" font-size="22" fill="#8b97a7">github.com/adrianogelato/energy-market-predictability</text>
<text x="1205" y="614" text-anchor="end" font-family="Arial, Helvetica, sans-serif" font-size="22" fill="#8b97a7">in/adrianlehmann</text>
</svg>
